<svg width="235" height="48" viewBox="0 0 235 48" fill="none" xmlns="http://www.w3.org/2000/svg">
<path d="M15 33.1429H39M10.2 17.1429H17.4M24.6 17.1429H31.8M39 17.1429H43.8M10.2 24H15M22.2 24H29.4M36.6 24H43.8M3 21.7143C3 15.2503 3 12.016 5.1096 10.0091C7.2168 8 10.6128 8 17.4 8H36.6C43.3872 8 46.7832 8 48.8904 10.0091C51 12.016 51 15.2503 51 21.7143V26.2857C51 32.7497 51 35.984 48.8904 37.9909C46.7832 40 43.3872 40 36.6 40H17.4C10.6128 40 7.2168 40 5.1096 37.9909C3 35.984 3 32.7497 3 26.2857V21.7143Z" stroke="#F2C230" stroke-width="5" stroke-linecap="round" stroke-linejoin="round"/>
<path d="M62.74 30.438L59.966 24.358L72.62 11.4H81.93L62.74 30.438ZM57.04 38V11.4H65.248V38H57.04ZM73.722 38L64.07 25.422L69.39 20.824L83.032 38H73.722ZM91.1723 38.38C88.8163 38.38 86.7896 37.924 85.0923 37.012C83.395 36.1 82.0903 34.8587 81.1783 33.288C80.2663 31.692 79.8103 29.868 79.8103 27.816C79.8103 26.296 80.0636 24.89 80.5703 23.598C81.077 22.306 81.7863 21.1913 82.6983 20.254C83.6356 19.2913 84.725 18.5567 85.9663 18.05C87.233 17.518 88.6136 17.252 90.1083 17.252C91.603 17.252 92.9583 17.518 94.1743 18.05C95.4156 18.5567 96.4796 19.2913 97.3663 20.254C98.253 21.1913 98.9243 22.306 99.3803 23.598C99.8616 24.89 100.077 26.296 100.026 27.816L99.9883 29.412H84.0663L83.1923 25.802H93.8703L93.1483 26.562V25.878C93.1483 25.3967 93.0216 24.9787 92.7683 24.624C92.5403 24.244 92.211 23.9527 91.7803 23.75C91.3496 23.5473 90.843 23.446 90.2603 23.446C89.5256 23.446 88.905 23.598 88.3983 23.902C87.8916 24.206 87.499 24.6367 87.2203 25.194C86.967 25.7513 86.8403 26.4227 86.8403 27.208C86.8403 28.12 87.0303 28.918 87.4103 29.602C87.8156 30.286 88.3983 30.818 89.1583 31.198C89.9436 31.578 90.9063 31.768 92.0463 31.768C92.8063 31.768 93.4523 31.6793 93.9843 31.502C94.5416 31.2993 95.1243 30.9827 95.7323 30.552L99.2663 35.53C98.329 36.2647 97.4043 36.8347 96.4923 37.24C95.6056 37.6453 94.719 37.9367 93.8323 38.114C92.971 38.2913 92.0843 38.38 91.1723 38.38ZM103.263 46.74L108.317 34.808L108.393 37.924L98.8548 17.67H107.443L110.255 24.434C110.559 25.1433 110.812 25.8147 111.015 26.448C111.243 27.0813 111.408 27.6767 111.509 28.234L110.749 28.918C110.85 28.6393 111.002 28.2087 111.205 27.626C111.408 27.018 111.636 26.3213 111.889 25.536L114.549 17.67H123.137L114.283 38L110.711 46.74H103.263ZM133.793 38.38C131.791 38.38 130.018 38.1647 128.473 37.734C126.953 37.278 125.61 36.6447 124.445 35.834C123.305 35.0233 122.279 34.0733 121.367 32.984L126.117 27.664C127.383 29.2853 128.701 30.362 130.069 30.894C131.462 31.4007 132.767 31.654 133.983 31.654C134.464 31.654 134.895 31.616 135.275 31.54C135.655 31.4387 135.946 31.2867 136.149 31.084C136.351 30.8813 136.453 30.6027 136.453 30.248C136.453 29.9187 136.339 29.64 136.111 29.412C135.908 29.184 135.629 28.994 135.275 28.842C134.92 28.6647 134.527 28.5253 134.097 28.424C133.691 28.2973 133.286 28.196 132.881 28.12C132.501 28.044 132.159 27.968 131.855 27.892C130.335 27.5373 129.005 27.1067 127.865 26.6C126.725 26.0933 125.775 25.4853 125.015 24.776C124.255 24.0667 123.685 23.256 123.305 22.344C122.95 21.432 122.773 20.406 122.773 19.266C122.773 17.974 123.064 16.796 123.647 15.732C124.255 14.668 125.053 13.756 126.041 12.996C127.054 12.236 128.194 11.6533 129.461 11.248C130.753 10.8427 132.083 10.64 133.451 10.64C135.452 10.64 137.124 10.83 138.467 11.21C139.809 11.5647 140.937 12.084 141.849 12.768C142.761 13.452 143.546 14.25 144.205 15.162L139.417 19.76C138.859 19.228 138.277 18.7973 137.669 18.468C137.061 18.1133 136.427 17.86 135.769 17.708C135.135 17.5307 134.502 17.442 133.869 17.442C133.286 17.442 132.792 17.4927 132.387 17.594C131.981 17.67 131.665 17.8093 131.437 18.012C131.209 18.1893 131.095 18.4427 131.095 18.772C131.095 19.1013 131.234 19.38 131.513 19.608C131.817 19.8107 132.184 19.988 132.615 20.14C133.071 20.292 133.514 20.4187 133.945 20.52C134.401 20.596 134.781 20.6593 135.085 20.71C136.478 20.9633 137.757 21.318 138.923 21.774C140.088 22.2047 141.101 22.762 141.963 23.446C142.849 24.1047 143.521 24.9407 143.977 25.954C144.458 26.942 144.699 28.12 144.699 29.488C144.699 31.4387 144.205 33.0727 143.217 34.39C142.254 35.7073 140.949 36.708 139.303 37.392C137.656 38.0507 135.819 38.38 133.793 38.38ZM146.546 46.36V17.67H153.69L154.108 22.154L152.55 21.812C152.728 20.9253 153.158 20.14 153.842 19.456C154.526 18.772 155.388 18.24 156.426 17.86C157.49 17.4547 158.643 17.252 159.884 17.252C161.556 17.252 163.038 17.708 164.33 18.62C165.648 19.5067 166.674 20.748 167.408 22.344C168.168 23.9147 168.548 25.7387 168.548 27.816C168.548 29.868 168.168 31.692 167.408 33.288C166.648 34.8587 165.597 36.1 164.254 37.012C162.937 37.8987 161.417 38.342 159.694 38.342C158.554 38.342 157.478 38.1393 156.464 37.734C155.476 37.3287 154.64 36.7713 153.956 36.062C153.272 35.3273 152.816 34.4913 152.588 33.554L154.298 33.022V46.36H146.546ZM157.566 32.072C158.301 32.072 158.922 31.9073 159.428 31.578C159.935 31.2487 160.315 30.7673 160.568 30.134C160.847 29.5007 160.986 28.728 160.986 27.816C160.986 26.904 160.847 26.1313 160.568 25.498C160.315 24.8393 159.935 24.3453 159.428 24.016C158.922 23.6867 158.301 23.522 157.566 23.522C156.832 23.522 156.198 23.6867 155.666 24.016C155.16 24.3453 154.767 24.8393 154.488 25.498C154.235 26.1313 154.108 26.904 154.108 27.816C154.108 28.728 154.235 29.5007 154.488 30.134C154.767 30.7673 155.16 31.2487 155.666 31.578C156.198 31.9073 156.832 32.072 157.566 32.072ZM170.437 38V17.67H177.581L178.037 24.434L176.327 23.37C176.657 22.2047 177.176 21.166 177.885 20.254C178.595 19.3167 179.443 18.582 180.431 18.05C181.445 17.518 182.521 17.252 183.661 17.252C184.117 17.252 184.548 17.29 184.953 17.366C185.359 17.4167 185.751 17.4927 186.131 17.594L184.003 26.144C183.75 25.9667 183.345 25.802 182.787 25.65C182.255 25.498 181.673 25.422 181.039 25.422C180.583 25.422 180.165 25.498 179.785 25.65C179.431 25.7767 179.127 25.9793 178.873 26.258C178.645 26.5367 178.468 26.866 178.341 27.246C178.215 27.626 178.151 28.0693 178.151 28.576V38H170.437ZM187.392 38V17.67H195.106V38H187.392ZM191.268 13.984C189.9 13.984 188.823 13.6673 188.038 13.034C187.278 12.4007 186.898 11.5013 186.898 10.336C186.898 9.272 187.29 8.398 188.076 7.714C188.861 7.03 189.925 6.688 191.268 6.688C192.636 6.688 193.7 7.00466 194.46 7.638C195.245 8.27133 195.638 9.17066 195.638 10.336C195.638 11.4 195.245 12.274 194.46 12.958C193.674 13.642 192.61 13.984 191.268 13.984ZM198.663 38V17.67H205.807L206.187 21.774L204.553 22.23C204.831 21.2673 205.325 20.4187 206.035 19.684C206.769 18.924 207.643 18.3287 208.657 17.898C209.67 17.4673 210.747 17.252 211.887 17.252C213.407 17.252 214.699 17.5687 215.763 18.202C216.827 18.8353 217.625 19.7727 218.157 21.014C218.714 22.23 218.993 23.712 218.993 25.46V38H211.279V26.106C211.279 25.5487 211.19 25.08 211.013 24.7C210.835 24.32 210.569 24.0287 210.215 23.826C209.86 23.6233 209.442 23.522 208.961 23.522C208.581 23.522 208.226 23.5853 207.897 23.712C207.593 23.8133 207.327 23.978 207.099 24.206C206.871 24.434 206.693 24.6873 206.567 24.966C206.44 25.2447 206.377 25.5613 206.377 25.916V38H202.539C201.576 38 200.765 38 200.107 38C199.473 38 198.992 38 198.663 38ZM223.098 38V12.54H230.812V38H223.098ZM219.944 24.13V17.67H234.156V24.13H219.944Z" fill="#F4FBFE"/>
</svg>
